<svg version="1.1" id="Layer_1" xmlns="http://www.w3.org/2000/svg" xmlns:xlink="http://www.w3.org/1999/xlink" x="0px" y="0px"
	 width="100%" viewBox="0 0 512 512" enable-background="new 0 0 512 512" xml:space="preserve">
<path fill="#EEEEEE" opacity="1.000000" stroke="none" 
	d="
M513.000000,168.000000 
	C513.000000,283.305298 513.000000,398.110596 513.000000,512.957947 
	C342.403015,512.957947 171.806046,512.957947 1.104528,512.957947 
	C1.104528,342.444733 1.104528,171.889374 1.104528,1.167012 
	C171.666534,1.167012 342.333252,1.167012 513.000000,1.167012 
	C513.000000,56.527256 513.000000,112.013626 513.000000,168.000000 
M102.879906,42.339771 
	C102.879906,42.339771 102.810852,42.713669 102.200577,42.767487 
	C101.804878,42.858685 101.409180,42.949883 100.154282,42.932693 
	C72.977142,45.171764 53.261703,57.947620 45.106911,84.599548 
	C42.003220,94.743217 41.234570,105.921326 41.199772,116.633820 
	C40.899445,209.100967 40.954201,301.569550 41.089668,394.037415 
	C41.102295,402.656555 41.839161,411.363831 43.202816,419.875916 
	C48.368206,452.118652 73.239822,468.519897 100.624329,470.144073 
	C101.439102,470.345428 102.253876,470.546753 103.209442,471.118561 
	C103.488251,471.020660 103.767059,470.922729 104.965118,470.655701 
	C122.294075,470.665100 139.623032,470.685638 156.951996,470.681976 
	C240.264267,470.664398 323.576538,470.640320 407.504181,470.790863 
	C407.705811,470.722107 407.907410,470.653381 408.733032,470.616760 
	C409.138336,470.694580 409.543610,470.772430 410.345612,471.389648 
	C411.201996,471.118225 412.058380,470.846771 412.924713,470.302490 
	C412.924713,470.302490 413.028198,470.049835 413.906036,470.164185 
	C427.352905,469.252319 439.524414,464.994476 450.084595,456.449188 
	C468.480499,441.563232 473.242157,421.291077 472.988770,398.046448 
	C472.998657,330.662201 473.026367,263.277924 473.009552,195.893677 
	C473.002991,169.609177 472.896332,143.324707 472.973724,116.113998 
	C472.667908,110.313515 472.779083,104.455437 471.987213,98.722092 
	C467.539337,66.519417 446.372467,45.656399 412.215302,42.990555 
	C411.204071,42.904865 410.192871,42.819180 409.108185,42.356792 
	C409.108185,42.356792 409.003265,41.987324 408.390991,41.421803 
	C406.914185,41.282810 405.437378,41.022430 403.960541,41.022144 
	C305.376709,41.003094 206.792862,41.000019 108.209045,41.045570 
	C106.470833,41.046371 104.732903,41.653255 102.879906,42.339771 
M100.432228,471.493286 
	C100.432228,471.493286 100.522072,471.446991 100.432228,471.493286 
z"/>
<path fill="#1475B1" opacity="1.000000" stroke="none" 
	d="
M472.847046,398.970490 
	C473.242157,421.291077 468.480499,441.563232 450.084595,456.449188 
	C439.524414,464.994476 427.352905,469.252319 413.167664,469.811951 
	C410.789948,469.306335 409.150604,469.019196 407.511230,469.018829 
	C306.758057,468.997009 206.004913,468.993927 105.251762,469.036896 
	C103.507416,469.037628 101.763313,469.620026 100.019089,469.930969 
	C73.239822,468.519897 48.368206,452.118652 43.202816,419.875916 
	C41.839161,411.363831 41.102295,402.656555 41.089668,394.037415 
	C40.954201,301.569550 40.899445,209.100967 41.199772,116.633820 
	C41.234570,105.921326 42.003220,94.743217 45.106911,84.599548 
	C53.261703,57.947620 72.977142,45.171764 100.892105,43.264637 
	C103.107124,43.731438 104.584297,43.984070 106.061516,43.984344 
	C206.600555,44.003170 307.139587,44.006008 407.678619,43.967060 
	C409.438202,43.966377 411.197601,43.442043 412.957092,43.162056 
	C446.372467,45.656399 467.539337,66.519417 471.987213,98.722092 
	C472.779083,104.455437 472.667908,110.313515 472.655426,116.902756 
	C472.224762,119.007561 472.014221,120.323608 472.014008,121.639687 
	C471.998566,212.492157 471.995667,303.344604 472.035248,394.197052 
	C472.035950,395.788330 472.564697,397.379364 472.847046,398.970490 
M289.303925,344.773712 
	C310.007965,338.134003 331.081085,337.191986 352.743011,340.626434 
	C352.994598,340.050262 353.467957,339.342041 353.616608,338.571198 
	C358.229492,314.652893 367.560059,292.412781 378.267059,270.747955 
	C388.953857,249.124008 400.292114,227.822647 411.154236,206.283768 
	C412.232880,204.144867 413.099274,199.895660 412.121826,199.140732 
	C410.095612,197.575775 406.537933,196.712479 404.002838,197.288849 
	C382.420807,202.195770 360.659241,206.586349 339.463867,212.862198 
	C298.302979,225.049728 257.493378,238.420822 216.492203,251.153214 
	C209.030060,253.470474 202.615387,256.539459 199.888901,264.620758 
	C199.163666,266.770416 197.420151,268.557404 196.300125,270.596588 
	C192.941040,276.712158 187.736511,279.974548 180.993423,281.510040 
	C169.149017,284.207153 157.406830,287.349579 145.590561,290.174774 
	C130.866714,293.695068 116.071609,296.925018 101.389282,300.607361 
	C95.678902,302.039551 94.950943,303.848480 97.380592,309.292084 
	C101.923248,319.469727 106.815674,329.490692 111.450897,339.627960 
	C112.806786,342.593292 114.444847,342.953308 117.681824,342.260803 
	C136.914078,338.146271 156.302505,336.564117 175.558441,341.876709 
	C188.045166,345.321716 200.396667,349.304871 212.676468,353.439728 
	C228.289597,358.696991 244.020355,359.789337 259.828979,355.061523 
	C269.535431,352.158630 278.981659,348.385712 289.303925,344.773712 
M128.692505,361.177216 
	C115.729988,363.566223 102.672226,365.664917 91.375015,373.496521 
	C93.318222,373.954285 95.204887,373.978271 97.065254,373.768768 
	C113.127258,371.960083 129.114243,372.465393 144.479858,377.622925 
	C161.647812,383.385376 178.581345,389.873840 195.487808,396.381653 
	C225.788849,408.045502 255.897583,408.293610 285.894897,395.485992 
	C307.840179,386.116241 329.321320,375.915466 354.255096,376.172638 
	C364.077576,376.273956 373.703308,376.154785 383.292908,378.276276 
	C384.757355,378.600281 386.233917,378.869629 387.704865,379.164246 
	C386.626465,376.835266 385.235107,375.435608 383.578857,374.509857 
	C366.038544,364.705719 347.443329,359.592773 327.138000,361.404877 
	C309.466736,362.981934 293.228119,369.396454 276.858307,375.484711 
	C260.803955,381.455597 244.253387,383.184052 227.250900,381.361023 
	C211.657501,379.689026 197.408600,373.608948 182.815216,368.477661 
	C165.641098,362.438904 148.152161,357.508301 128.692505,361.177216 
M201.894775,212.415527 
	C179.521210,220.909866 157.130630,229.360168 134.807587,237.985291 
	C133.089813,238.648987 130.610931,240.513672 130.577118,241.872192 
	C130.255035,254.812988 130.384918,267.765045 130.384918,280.902405 
	C143.180252,278.361755 155.793167,274.920288 168.625473,273.580994 
	C180.714096,272.319275 188.126434,266.582428 192.495636,255.823608 
	C195.471954,248.494644 201.294403,244.367218 208.457153,241.787338 
	C211.115372,240.829895 213.769821,239.857437 216.454315,238.978287 
	C238.726089,231.684357 261.011047,224.430618 283.268402,217.093018 
	C285.045227,216.507278 286.645172,215.384827 288.327301,214.511810 
	C288.181915,214.052612 288.036499,213.593399 287.891113,213.134201 
	C286.139435,212.769714 284.402832,212.289154 282.633636,212.059616 
	C271.088837,210.561646 259.440430,209.640793 248.010880,207.529755 
	C232.311417,204.630051 217.076553,203.886627 201.894775,212.415527 
M149.496170,197.041901 
	C147.729584,198.131805 144.531448,199.109344 144.435608,200.330368 
	C143.926773,206.813477 144.196396,213.357697 144.196396,220.259430 
	C146.067139,219.653076 147.489899,219.258072 148.864594,218.736420 
	C170.460999,210.541397 192.011902,202.223587 213.680069,194.223267 
	C217.463379,192.826385 221.789917,191.947464 225.769257,192.222549 
	C235.713699,192.910004 245.604065,194.387482 255.513733,195.568039 
	C266.193726,196.840378 276.870972,198.135529 288.543304,199.540344 
	C288.543304,193.736557 288.360840,188.624542 288.599152,183.532211 
	C288.801849,179.200150 287.230072,177.362854 282.744415,176.906723 
	C265.867310,175.190445 249.021164,173.161133 232.175858,171.145142 
	C226.020905,170.408524 220.057159,170.071945 214.029846,172.420715 
	C192.818268,180.686523 171.508636,188.700745 149.496170,197.041901 
M170.898758,163.461258 
	C170.898758,166.885406 170.898758,170.309555 170.898758,174.383118 
	C184.008041,170.034653 196.266632,165.969498 208.523972,161.900620 
	C209.627625,161.534256 211.087509,161.455276 211.739105,160.693176 
	C212.771667,159.485504 213.859924,157.820709 213.878098,156.336517 
	C213.963531,149.356781 213.704559,142.372391 213.543915,135.390228 
	C213.428909,130.391159 211.877411,128.802933 207.084000,130.283020 
	C196.143082,133.661301 185.295425,137.380066 174.582489,141.418442 
	C172.892288,142.055603 171.262009,145.000595 171.062775,147.022308 
	C170.559540,152.128632 170.887650,157.316864 170.898758,163.461258 
z"/>
<path fill="#096AAB" opacity="1.000000" stroke="none" 
	d="
M100.321709,470.037537 
	C101.763313,469.620026 103.507416,469.037628 105.251762,469.036896 
	C206.004913,468.993927 306.758057,468.997009 407.511230,469.018829 
	C409.150604,469.019196 410.789948,469.306335 412.728760,469.754761 
	C413.028198,470.049835 412.924713,470.302490 412.546570,470.374481 
	C411.428619,470.581085 410.688751,470.715668 409.948914,470.850250 
	C409.543610,470.772430 409.138336,470.694580 408.295593,470.458405 
	C407.535034,470.406189 407.211914,470.512360 406.888824,470.618530 
	C323.576538,470.640320 240.264267,470.664398 156.951996,470.681976 
	C139.623032,470.685638 122.294075,470.665100 104.267273,470.643555 
	C103.402489,470.670288 103.235565,470.709167 103.068649,470.748077 
	C102.253876,470.546753 101.439102,470.345428 100.321709,470.037537 
z"/>
<path fill="#086AAB" opacity="1.000000" stroke="none" 
	d="
M412.586182,43.076305 
	C411.197601,43.442043 409.438202,43.966377 407.678619,43.967060 
	C307.139587,44.006008 206.600555,44.003170 106.061516,43.984344 
	C104.584297,43.984070 103.107124,43.731438 101.321701,43.318832 
	C101.409180,42.949883 101.804878,42.858685 102.838455,42.852036 
	C104.365738,42.771397 105.255142,42.606209 106.536674,42.425171 
	C108.236717,42.416748 109.544647,42.424168 111.088882,42.614185 
	C112.266205,42.674168 113.207207,42.551552 114.606537,42.413876 
	C130.661530,42.410023 146.258209,42.421230 162.121582,42.619469 
	C163.640854,42.680893 164.893448,42.555275 166.603256,42.414490 
	C172.326523,42.406605 177.592560,42.413895 183.179443,42.616356 
	C185.714462,42.683052 187.928619,42.554581 190.578262,42.411907 
	C193.628281,42.408218 196.242844,42.418728 199.200394,42.624317 
	C202.410004,42.688400 205.276627,42.557404 208.514297,42.412338 
	C209.875336,42.408558 210.865311,42.418850 212.122040,42.615982 
	C213.641098,42.676727 214.893387,42.550632 216.537750,42.409172 
	C218.237473,42.403126 219.545120,42.412437 221.087906,42.606689 
	C222.264740,42.669304 223.206436,42.546986 224.555634,42.409801 
	C226.594391,42.405380 228.225662,42.415829 230.165527,42.616985 
	C232.364059,42.681171 234.254013,42.554649 236.550995,42.413452 
	C238.587448,42.409561 240.216843,42.420345 242.039825,42.607300 
	C242.873856,42.665752 243.514282,42.548038 244.572693,42.414864 
	C246.942444,42.411076 248.894196,42.422756 251.039886,42.609955 
	C251.874237,42.668301 252.514664,42.551128 253.546539,42.418396 
	C255.243729,42.410656 256.549469,42.418484 258.122192,42.612823 
	C259.641479,42.676697 260.893829,42.554062 262.604614,42.416519 
	C271.990814,42.411869 280.918518,42.422131 290.039886,42.608551 
	C290.874023,42.667244 291.514526,42.549778 292.612854,42.416283 
	C300.991821,42.408916 308.912933,42.417583 316.967285,42.583168 
	C317.456451,42.635559 317.812408,42.531033 318.601990,42.411697 
	C321.641113,42.406906 324.246613,42.416920 327.087524,42.611481 
	C328.264801,42.672970 329.206665,42.549915 330.606873,42.411835 
	C339.992371,42.407230 348.919525,42.417652 358.039795,42.604668 
	C358.873505,42.665112 359.514069,42.548962 360.612549,42.418167 
	C370.999176,42.413605 380.927856,42.423687 391.165619,42.623638 
	C393.364594,42.686234 395.254486,42.558960 397.585083,42.416611 
	C400.968323,42.417526 403.910919,42.433517 407.105713,42.631767 
	C407.965851,42.787182 408.573730,42.760334 409.181641,42.733490 
	C410.192871,42.819180 411.204071,42.904865 412.586182,43.076305 
z"/>
<path fill="#FFFFF8" opacity="1.000000" stroke="none" 
	d="
M289.846252,42.432392 
	C280.918518,42.422131 271.990814,42.411869 262.192017,42.258621 
	C260.165710,42.219193 259.010468,42.322750 257.855194,42.426311 
	C256.549469,42.418484 255.243729,42.410656 253.170746,42.271420 
	C251.884308,42.238152 251.365143,42.336292 250.845963,42.434433 
	C248.894196,42.422756 246.942444,42.411076 244.196930,42.268383 
	C242.884186,42.235287 242.365219,42.333206 241.846237,42.431129 
	C240.216843,42.420345 238.587448,42.409561 236.120773,42.256760 
	C233.474640,42.218594 231.665802,42.322437 229.856949,42.426277 
	C228.225662,42.415829 226.594391,42.405380 224.157501,42.254562 
	C222.518860,42.216713 221.685822,42.319233 220.852783,42.421753 
	C219.545120,42.412437 218.237473,42.403126 216.124664,42.252838 
	C214.164780,42.217625 213.010025,42.323387 211.855286,42.429146 
	C210.865311,42.418850 209.875336,42.408558 208.070496,42.255592 
	C204.456223,42.218357 201.656815,42.323795 198.857391,42.429237 
	C196.242844,42.418728 193.628281,42.408218 190.142670,42.254341 
	C187.133926,42.214378 184.996262,42.317780 182.858597,42.421185 
	C177.592560,42.413895 172.326523,42.406605 166.190399,42.256954 
	C164.165161,42.220539 163.010025,42.326488 161.854874,42.432434 
	C146.258209,42.421230 130.661530,42.410023 114.208351,42.257740 
	C112.518745,42.221638 111.685661,42.326611 110.852570,42.431587 
	C109.544647,42.424168 108.236717,42.416748 106.166016,42.267715 
	C104.600441,42.076515 103.797638,42.026928 102.994835,41.977337 
	C104.732903,41.653255 106.470833,41.046371 108.209045,41.045570 
	C206.792862,41.000019 305.376709,41.003094 403.960541,41.022144 
	C405.437378,41.022430 406.914185,41.282810 408.326843,41.734970 
	C407.792999,42.181931 407.323242,42.315723 406.853516,42.449509 
	C403.910919,42.433517 400.968323,42.417526 397.154907,42.259140 
	C394.474945,42.222420 392.665741,42.328094 390.856567,42.433769 
	C380.927856,42.423687 370.999176,42.413605 360.237244,42.270798 
	C358.884949,42.234741 358.365814,42.331406 357.846710,42.428070 
	C348.919525,42.417652 339.992371,42.407230 330.208588,42.256256 
	C328.518707,42.219448 327.685394,42.323189 326.852112,42.426933 
	C324.246613,42.416920 321.641113,42.406906 318.268311,42.301060 
	C317.278687,42.278900 317.056396,42.352577 316.834076,42.426250 
	C308.912933,42.417583 300.991821,42.408916 292.237122,42.269581 
	C290.884430,42.236740 290.365356,42.334564 289.846252,42.432392 
z"/>
<path fill="#196AAC" opacity="1.000000" stroke="none" 
	d="
M472.917908,398.508484 
	C472.564697,397.379364 472.035950,395.788330 472.035248,394.197052 
	C471.995667,303.344604 471.998566,212.492157 472.014008,121.639687 
	C472.014221,120.323608 472.224762,119.007561 472.586212,117.365868 
	C472.896332,143.324707 473.002991,169.609177 473.009552,195.893677 
	C473.026367,263.277924 472.998657,330.662201 472.917908,398.508484 
z"/>
<path fill="#FCFBF6" opacity="1.000000" stroke="none" 
	d="
M410.147278,471.119934 
	C410.688751,470.715668 411.428619,470.581085 412.541626,470.510895 
	C412.058380,470.846771 411.201996,471.118225 410.147278,471.119934 
z"/>
<path fill="#7EA3CA" opacity="1.000000" stroke="none" 
	d="
M102.937370,42.158554 
	C103.797638,42.026928 104.600441,42.076515 105.773895,42.283562 
	C105.255142,42.606209 104.365738,42.771397 103.143585,42.825127 
	C102.810852,42.713669 102.879906,42.339771 102.937370,42.158554 
z"/>
<path fill="#7EA3CA" opacity="1.000000" stroke="none" 
	d="
M407.105713,42.631771 
	C407.323242,42.315723 407.792999,42.181931 408.632996,42.017731 
	C409.003265,41.987324 409.108185,42.356792 409.144897,42.545139 
	C408.573730,42.760334 407.965851,42.787182 407.105713,42.631771 
z"/>
<path fill="#6696C3" opacity="1.000000" stroke="none" 
	d="
M407.196503,470.704712 
	C407.211914,470.512360 407.535034,470.406189 407.983582,470.442322 
	C407.907410,470.653381 407.705811,470.722107 407.196503,470.704712 
z"/>
<path fill="#FCFBF6" opacity="1.000000" stroke="none" 
	d="
M100.477150,471.470154 
	C100.522072,471.446991 100.432228,471.493286 100.477150,471.470154 
z"/>
<path fill="#FCFBF6" opacity="1.000000" stroke="none" 
	d="
M103.139046,470.933319 
	C103.235565,470.709167 103.402489,470.670288 103.807648,470.728088 
	C103.767059,470.922729 103.488251,471.020660 103.139046,470.933319 
z"/>
<path fill="#FDFDFB" opacity="1.000000" stroke="none" 
	d="
M288.924316,344.888611 
	C278.981659,348.385712 269.535431,352.158630 259.828979,355.061523 
	C244.020355,359.789337 228.289597,358.696991 212.676468,353.439728 
	C200.396667,349.304871 188.045166,345.321716 175.558441,341.876709 
	C156.302505,336.564117 136.914078,338.146271 117.681824,342.260803 
	C114.444847,342.953308 112.806786,342.593292 111.450897,339.627960 
	C106.815674,329.490692 101.923248,319.469727 97.380592,309.292084 
	C94.950943,303.848480 95.678902,302.039551 101.389282,300.607361 
	C116.071609,296.925018 130.866714,293.695068 145.590561,290.174774 
	C157.406830,287.349579 169.149017,284.207153 180.993423,281.510040 
	C187.736511,279.974548 192.941040,276.712158 196.300125,270.596588 
	C197.420151,268.557404 199.163666,266.770416 199.888901,264.620758 
	C202.615387,256.539459 209.030060,253.470474 216.492203,251.153214 
	C257.493378,238.420822 298.302979,225.049728 339.463867,212.862198 
	C360.659241,206.586349 382.420807,202.195770 404.002838,197.288849 
	C406.537933,196.712479 410.095612,197.575775 412.121826,199.140732 
	C413.099274,199.895660 412.232880,204.144867 411.154236,206.283768 
	C400.292114,227.822647 388.953857,249.124008 378.267059,270.747955 
	C367.560059,292.412781 358.229492,314.652893 353.616608,338.571198 
	C353.467957,339.342041 352.994598,340.050262 352.743011,340.626434 
	C331.081085,337.191986 310.007965,338.134003 288.924316,344.888611 
M210.124268,304.479218 
	C210.050629,299.634583 208.405563,295.670258 203.743057,293.541016 
	C198.729065,291.251221 193.037109,292.297638 189.485352,296.049805 
	C186.287323,299.428284 185.681793,305.949158 188.135910,310.582001 
	C190.238144,314.550568 195.414780,316.758942 200.628189,315.911346 
	C206.013855,315.035736 209.170609,311.510010 210.124268,304.479218 
M271.325287,278.795258 
	C273.075348,284.211243 276.478394,287.791962 282.433105,287.829468 
	C287.143616,287.859131 291.270538,286.200439 293.682983,281.783508 
	C295.994293,277.551819 295.115906,272.563080 291.495880,268.433777 
	C288.148773,264.615753 282.914337,263.311127 278.379364,265.164551 
	C273.281464,267.248047 270.894836,271.492584 271.325287,278.795258 
M230.630997,297.734833 
	C234.771790,302.789856 240.604416,304.048462 246.096893,301.072113 
	C250.819077,298.513214 253.105118,292.559357 251.352066,287.385315 
	C249.286102,281.287750 244.592819,278.312958 238.315231,279.078583 
	C231.016251,279.968781 225.190567,289.157593 230.630997,297.734833 
z"/>
<path fill="#FAFBFA" opacity="1.000000" stroke="none" 
	d="
M129.130829,361.122803 
	C148.152161,357.508301 165.641098,362.438904 182.815216,368.477661 
	C197.408600,373.608948 211.657501,379.689026 227.250900,381.361023 
	C244.253387,383.184052 260.803955,381.455597 276.858307,375.484711 
	C293.228119,369.396454 309.466736,362.981934 327.138000,361.404877 
	C347.443329,359.592773 366.038544,364.705719 383.578857,374.509857 
	C385.235107,375.435608 386.626465,376.835266 387.704865,379.164246 
	C386.233917,378.869629 384.757355,378.600281 383.292908,378.276276 
	C373.703308,376.154785 364.077576,376.273956 354.255096,376.172638 
	C329.321320,375.915466 307.840179,386.116241 285.894897,395.485992 
	C255.897583,408.293610 225.788849,408.045502 195.487808,396.381653 
	C178.581345,389.873840 161.647812,383.385376 144.479858,377.622925 
	C129.114243,372.465393 113.127258,371.960083 97.065254,373.768768 
	C95.204887,373.978271 93.318222,373.954285 91.375015,373.496521 
	C102.672226,365.664917 115.729988,363.566223 129.130829,361.122803 
z"/>
<path fill="#FCFDFB" opacity="1.000000" stroke="none" 
	d="
M202.258240,212.275711 
	C217.076553,203.886627 232.311417,204.630051 248.010880,207.529755 
	C259.440430,209.640793 271.088837,210.561646 282.633636,212.059616 
	C284.402832,212.289154 286.139435,212.769714 287.891113,213.134201 
	C288.036499,213.593399 288.181915,214.052612 288.327301,214.511810 
	C286.645172,215.384827 285.045227,216.507278 283.268402,217.093018 
	C261.011047,224.430618 238.726089,231.684357 216.454315,238.978287 
	C213.769821,239.857437 211.115372,240.829895 208.457153,241.787338 
	C201.294403,244.367218 195.471954,248.494644 192.495636,255.823608 
	C188.126434,266.582428 180.714096,272.319275 168.625473,273.580994 
	C155.793167,274.920288 143.180252,278.361755 130.384918,280.902405 
	C130.384918,267.765045 130.255035,254.812988 130.577118,241.872192 
	C130.610931,240.513672 133.089813,238.648987 134.807587,237.985291 
	C157.130630,229.360168 179.521210,220.909866 202.258240,212.275711 
z"/>
<path fill="#FBFCFB" opacity="1.000000" stroke="none" 
	d="
M149.866196,196.926178 
	C171.508636,188.700745 192.818268,180.686523 214.029846,172.420715 
	C220.057159,170.071945 226.020905,170.408524 232.175858,171.145142 
	C249.021164,173.161133 265.867310,175.190445 282.744415,176.906723 
	C287.230072,177.362854 288.801849,179.200150 288.599152,183.532211 
	C288.360840,188.624542 288.543304,193.736557 288.543304,199.540344 
	C276.870972,198.135529 266.193726,196.840378 255.513733,195.568039 
	C245.604065,194.387482 235.713699,192.910004 225.769257,192.222549 
	C221.789917,191.947464 217.463379,192.826385 213.680069,194.223267 
	C192.011902,202.223587 170.460999,210.541397 148.864594,218.736420 
	C147.489899,219.258072 146.067139,219.653076 144.196396,220.259430 
	C144.196396,213.357697 143.926773,206.813477 144.435608,200.330368 
	C144.531448,199.109344 147.729584,198.131805 149.866196,196.926178 
z"/>
<path fill="#FAFCFB" opacity="1.000000" stroke="none" 
	d="
M170.890701,162.966766 
	C170.887650,157.316864 170.559540,152.128632 171.062775,147.022308 
	C171.262009,145.000595 172.892288,142.055603 174.582489,141.418442 
	C185.295425,137.380066 196.143082,133.661301 207.084000,130.283020 
	C211.877411,128.802933 213.428909,130.391159 213.543915,135.390228 
	C213.704559,142.372391 213.963531,149.356781 213.878098,156.336517 
	C213.859924,157.820709 212.771667,159.485504 211.739105,160.693176 
	C211.087509,161.455276 209.627625,161.534256 208.523972,161.900620 
	C196.266632,165.969498 184.008041,170.034653 170.898758,174.383118 
	C170.898758,170.309555 170.898758,166.885406 170.890701,162.966766 
z"/>
<path fill="#7EA3CA" opacity="1.000000" stroke="none" 
	d="
M199.200394,42.624317 
	C201.656815,42.323795 204.456223,42.218357 207.699432,42.269665 
	C205.276627,42.557404 202.410004,42.688400 199.200394,42.624317 
z"/>
<path fill="#7EA3CA" opacity="1.000000" stroke="none" 
	d="
M183.179443,42.616356 
	C184.996262,42.317780 187.133926,42.214378 189.707184,42.268543 
	C187.928619,42.554581 185.714462,42.683052 183.179443,42.616356 
z"/>
<path fill="#7EA3CA" opacity="1.000000" stroke="none" 
	d="
M391.165619,42.623638 
	C392.665741,42.328094 394.474945,42.222420 396.714264,42.274216 
	C395.254486,42.558960 393.364594,42.686234 391.165619,42.623638 
z"/>
<path fill="#7EA3CA" opacity="1.000000" stroke="none" 
	d="
M230.165527,42.616989 
	C231.665802,42.322437 233.474640,42.218594 235.713715,42.271439 
	C234.254013,42.554649 232.364059,42.681171 230.165527,42.616989 
z"/>
<path fill="#7EA3CA" opacity="1.000000" stroke="none" 
	d="
M162.121582,42.619473 
	C163.010025,42.326488 164.165161,42.220539 165.733170,42.272125 
	C164.893448,42.555275 163.640854,42.680893 162.121582,42.619473 
z"/>
<path fill="#7EA3CA" opacity="1.000000" stroke="none" 
	d="
M258.122192,42.612823 
	C259.010468,42.322750 260.165710,42.219193 261.733582,42.273529 
	C260.893829,42.554062 259.641479,42.676697 258.122192,42.612823 
z"/>
<path fill="#7EA3CA" opacity="1.000000" stroke="none" 
	d="
M212.122040,42.615982 
	C213.010025,42.323387 214.164780,42.217625 215.732605,42.268204 
	C214.893387,42.550632 213.641098,42.676727 212.122040,42.615982 
z"/>
<path fill="#7EA3CA" opacity="1.000000" stroke="none" 
	d="
M221.087906,42.606689 
	C221.685822,42.319233 222.518860,42.216713 223.750031,42.269432 
	C223.206436,42.546986 222.264740,42.669304 221.087906,42.606689 
z"/>
<path fill="#7EA3CA" opacity="1.000000" stroke="none" 
	d="
M111.088882,42.614185 
	C111.685661,42.326611 112.518745,42.221638 113.750031,42.272800 
	C113.207207,42.551552 112.266205,42.674168 111.088882,42.614185 
z"/>
<path fill="#7EA3CA" opacity="1.000000" stroke="none" 
	d="
M327.087524,42.611477 
	C327.685394,42.323189 328.518707,42.219448 329.750275,42.271286 
	C329.206665,42.549915 328.264801,42.672970 327.087524,42.611477 
z"/>
<path fill="#7EA3CA" opacity="1.000000" stroke="none" 
	d="
M242.039825,42.607296 
	C242.365219,42.333206 242.884186,42.235287 243.778931,42.283844 
	C243.514282,42.548038 242.873856,42.665752 242.039825,42.607296 
z"/>
<path fill="#7EA3CA" opacity="1.000000" stroke="none" 
	d="
M251.039886,42.609955 
	C251.365143,42.336292 251.884308,42.238152 252.779297,42.286980 
	C252.514664,42.551128 251.874237,42.668301 251.039886,42.609955 
z"/>
<path fill="#7EA3CA" opacity="1.000000" stroke="none" 
	d="
M290.039886,42.608551 
	C290.365356,42.334564 290.884430,42.236740 291.779297,42.285614 
	C291.514526,42.549778 290.874023,42.667244 290.039886,42.608551 
z"/>
<path fill="#7EA3CA" opacity="1.000000" stroke="none" 
	d="
M358.039795,42.604664 
	C358.365814,42.331406 358.884949,42.234741 359.779358,42.285446 
	C359.514069,42.548962 358.873505,42.665112 358.039795,42.604664 
z"/>
<path fill="#7EA3CA" opacity="1.000000" stroke="none" 
	d="
M316.967285,42.583168 
	C317.056396,42.352577 317.278687,42.278900 317.834686,42.315865 
	C317.812408,42.531033 317.456451,42.635559 316.967285,42.583168 
z"/>
<path fill="#1977B2" opacity="1.000000" stroke="none" 
	d="
M210.117264,304.900085 
	C209.170609,311.510010 206.013855,315.035736 200.628189,315.911346 
	C195.414780,316.758942 190.238144,314.550568 188.135910,310.582001 
	C185.681793,305.949158 186.287323,299.428284 189.485352,296.049805 
	C193.037109,292.297638 198.729065,291.251221 203.743057,293.541016 
	C208.405563,295.670258 210.050629,299.634583 210.117264,304.900085 
z"/>
<path fill="#1977B2" opacity="1.000000" stroke="none" 
	d="
M271.242706,278.399506 
	C270.894836,271.492584 273.281464,267.248047 278.379364,265.164551 
	C282.914337,263.311127 288.148773,264.615753 291.495880,268.433777 
	C295.115906,272.563080 295.994293,277.551819 293.682983,281.783508 
	C291.270538,286.200439 287.143616,287.859131 282.433105,287.829468 
	C276.478394,287.791962 273.075348,284.211243 271.242706,278.399506 
z"/>
<path fill="#1977B2" opacity="1.000000" stroke="none" 
	d="
M230.417969,297.423523 
	C225.190567,289.157593 231.016251,279.968781 238.315231,279.078583 
	C244.592819,278.312958 249.286102,281.287750 251.352066,287.385315 
	C253.105118,292.559357 250.819077,298.513214 246.096893,301.072113 
	C240.604416,304.048462 234.771790,302.789856 230.417969,297.423523 
z"/>
</svg>